<svg width="121" height="93" fill="none" xmlns="http://www.w3.org/2000/svg"><path d="M46.5 91C71.077 91 91 71.077 91 46.5S71.077 2 46.5 2 2 21.923 2 46.5 21.923 91 46.5 91z" stroke="#FCC344" stroke-width="4" stroke-miterlimit="10"/><path d="M46.5 91c18.433 0 33.375-19.923 33.375-44.5S64.933 2 46.5 2 13.125 21.923 13.125 46.5 28.067 91 46.5 91z" stroke="#FCC344" stroke-width="4" stroke-miterlimit="10"/><path d="M71.5 91C97.734 91 119 71.077 119 46.5S97.734 2 71.5 2C45.267 2 24 21.923 24 46.5S45.267 91 71.5 91z" stroke="#FCC344" stroke-width="4" stroke-miterlimit="10"/><path d="M46.5 91c6.144 0 11.125-19.923 11.125-44.5S52.645 2 46.5 2c-6.144 0-11.125 19.923-11.125 44.5S40.355 91 46.5 91zm0 0V2" stroke="#FCC344" stroke-width="4" stroke-miterlimit="10"/></svg>