<svg width="93" height="93" fill="none" xmlns="http://www.w3.org/2000/svg"><path d="M46.5 91C71.077 91 91 71.077 91 46.5S71.077 2 46.5 2 2 21.923 2 46.5 21.923 91 46.5 91z" stroke="#FCC344" stroke-width="4" stroke-miterlimit="10"/><path d="M46.5 76.167c16.385 0 29.667-13.282 29.667-29.667 0-16.384-13.282-29.666-29.666-29.666-16.385 0-29.667 13.282-29.667 29.666 0 16.385 13.282 29.667 29.667 29.667z" stroke="#FCC344" stroke-width="4" stroke-miterlimit="10"/><path d="M46.5 61.333c8.192 0 14.833-6.64 14.833-14.833 0-8.192-6.641-14.834-14.834-14.834-8.192 0-14.833 6.642-14.833 14.834s6.641 14.833 14.833 14.833z" stroke="#FCC344" stroke-width="4" stroke-miterlimit="10"/></svg>