<svg width="141" height="38" fill="none" xmlns="http://www.w3.org/2000/svg"><path fill-rule="evenodd" clip-rule="evenodd" d="M.165 17.81h5.071V6.158l6.633 11.651h2.83l6.631-11.65V17.81h5.206V.977h-7.22l-5.841 10.475L7.658.977H.165v16.832zM40.3.681C29.637.682 28.437 6 28.437 9.008v.68c0 2.963 1.2 8.416 11.862 8.416h.973c10.617 0 11.84-5.453 11.84-8.417V9.01c0-3.01-1.245-8.326-11.84-8.326H40.3zm7.29 8.801c0 1.946-1.155 4.525-6.815 4.525-5.704 0-6.813-2.647-6.813-4.57v-.271c0-1.924 1.019-4.412 6.813-4.412 5.705 0 6.814 2.488 6.814 4.412v.316zM55.011.976V17.81h5.207V6.655L71.65 17.81h5.206V.977H71.65v10.588L60.897.977h-5.885zm51.813 16.834h5.275v-6.516L120.86.977h-5.953l-5.32 6.199-5.229-6.2h-6.542l9.009 10.318v6.515zm-51.822 2.38v16.833h5.252V30.35h11.862v-3.846H60.254v-2.49H72.41V20.19H55.002zm55.315 17.127c8.467 0 9.87-2.85 9.87-5.633v-.317c0-3.349-2.558-4.887-8.896-5l-2.83-.046c-3.44-.067-3.893-.723-3.893-1.447 0-.724.294-1.448 4.368-1.448h.362c4.415 0 4.754 1.38 4.868 2.013h5.478v-.226c0-2.534-1.811-5.317-9.779-5.317h-1.562c-7.674 0-9.169 2.625-9.169 5.136v.204c0 2.624 1.925 4.75 8.218 4.932l2.897.068c3.894.113 4.415.724 4.415 1.697 0 .905-.498 1.787-4.935 1.787h-.317c-4.347 0-4.935-1.651-5.003-2.67h-5.5v.25c0 2.217 1.018 6.018 9.847 6.018h1.561zm17.746-.294h5.32v-12.85h7.266V20.19H120.82v3.982h7.243v12.851z" fill="#000"/><path d="M76.912 20.192H71.88v3.818h5.033v-3.819zm0 6.303h-5.337v3.88h5.337v-3.88z" fill="#000"/><path d="M97.167.977H79.4v3.819h17.768V.977zm0 6.425H79.4v3.819h17.768V7.402zm0 6.425H79.4v3.819h17.768v-3.819zm0 6.486H79.4v3.818h17.768v-3.818zm0 6.425H79.4v3.818h17.768v-3.818zm0 6.425H79.4v3.818h17.768v-3.818z" fill="#FCC344"/></svg>