<svg width="31" height="38" fill="none" xmlns="http://www.w3.org/2000/svg"><path fill-rule="evenodd" clip-rule="evenodd" d="M15.5 37.868C5.25 33.302.125 28.747.125 24.202V7.118c0-1.31.503-1.616 1.896-2.459.422-.255.925-.56 1.52-.957C3.819 3.518 9.63.285 15.5.285c5.117 0 9.396 1.708 11.958 3.417.596.397 1.1.702 1.52.957 1.394.843 1.897 1.148 1.897 2.46.034.37.017 8.261.006 13.314v.001c-.003 1.723-.006 3.116-.006 3.768 0 4.555-5.125 9.11-15.375 13.666zm11.958-13.666l.004-2.128.006-3.336.006-2.89c.006-3.814.004-7.086 0-8.099l-.234-.145a75.926 75.926 0 01-1.677-1.06c-2.522-1.68-6.202-2.842-10.063-2.842-3.693 0-8.493 1.796-10.063 2.843-.405.27-1.125.716-1.677 1.059l-.218.135v16.463c0 2.577 3.808 6.096 11.96 9.912 8.15-3.807 11.956-7.325 11.956-9.912zm-6.333-11.458l-7.333 7.334-3.917-3.917-2.416 2.415 6.333 6.334 9.75-9.75-2.417-2.416z" fill="#000"/></svg>