<svg width="658" height="658" fill="none" xmlns="http://www.w3.org/2000/svg"><path d="M329 0l2.583 279.718L363.39 1.802l-26.67 278.456L397.403 7.189l-55.63 274.143 88.894-265.23-83.982 266.826L462.816 28.444 351.404 285.029 493.5 44.078 355.878 287.612 522.381 62.833 360.057 290.648 549.144 84.505 363.896 294.104l209.599-185.248-206.143 189.087 227.815-162.324-224.779 166.503L613.922 164.5 372.971 306.596l256.585-111.412-254.484 116.131 266.826-83.982-265.23 88.894 274.143-55.63-273.069 60.683 278.456-26.67-277.916 31.807L658 329l-279.718 2.583 277.916 31.807-278.456-26.67 273.069 60.683-274.143-55.63 265.23 88.894-266.826-83.982 254.484 116.131-256.585-111.412L613.922 493.5 370.388 355.878l224.779 166.503-227.815-162.324 206.143 189.087-209.599-185.248 185.248 209.599-189.087-206.143 162.324 227.815-166.503-224.779L493.5 613.922 351.404 372.971l111.412 256.585-116.131-254.484 83.982 266.826-88.894-265.23 55.63 274.143-60.683-273.069 26.67 278.456-31.807-277.916L329 658l-2.583-279.718-31.807 277.916 26.67-278.456-60.683 273.069 55.63-274.143-88.894 265.23 83.982-266.826-116.131 254.484 111.412-256.585L164.5 613.922l137.622-243.534-166.503 224.779 162.324-227.815-189.087 206.143 185.248-209.599L84.505 549.144l206.143-189.087L62.833 522.381l224.779-166.503L44.078 493.5l240.951-142.096L28.443 462.816l254.485-116.131-266.826 83.982 265.23-88.894-274.143 55.63 273.069-60.683L1.802 363.39l277.916-31.807L0 329l279.718-2.583L1.802 294.61l278.456 26.67L7.189 260.597l274.143 55.63-265.23-88.894 266.826 83.982L28.444 195.184l256.585 111.412L44.078 164.5l243.534 137.622L62.833 135.619l227.815 162.324L84.505 108.856l209.599 185.248L108.856 84.505l189.087 206.143L135.619 62.833l166.503 224.779L164.5 44.078l142.096 240.951L195.184 28.443l116.131 254.485-83.982-266.826 88.894 265.23-55.63-274.143 60.683 273.069L294.61 1.802l31.807 277.916L329 0z" fill="#fff" fill-opacity=".4"/></svg>