<svg width="658" height="658" viewBox="0 0 658 658" fill="none" xmlns="http://www.w3.org/2000/svg">
<path d="M329 0L331.583 279.718L363.39 1.80231L336.72 280.258L397.403 7.18945L341.773 281.332L430.667 16.1024L346.685 282.928L462.816 28.4435L351.404 285.029L493.5 44.0776L355.878 287.612L522.381 62.8334L360.057 290.648L549.144 84.5054L363.896 294.104L573.495 108.856L367.352 297.943L595.167 135.619L370.388 302.122L613.922 164.5L372.971 306.596L629.556 195.184L375.072 311.315L641.898 227.333L376.668 316.227L650.811 260.597L377.742 321.28L656.198 294.61L378.282 326.417L658 329L378.282 331.583L656.198 363.39L377.742 336.72L650.811 397.403L376.668 341.773L641.898 430.667L375.072 346.685L629.556 462.816L372.971 351.404L613.922 493.5L370.388 355.878L595.167 522.381L367.352 360.057L573.495 549.144L363.896 363.896L549.144 573.495L360.057 367.352L522.381 595.167L355.878 370.388L493.5 613.922L351.404 372.971L462.816 629.556L346.685 375.072L430.667 641.898L341.773 376.668L397.403 650.811L336.72 377.742L363.39 656.198L331.583 378.282L329 658L326.417 378.282L294.61 656.198L321.28 377.742L260.597 650.811L316.227 376.668L227.333 641.898L311.315 375.072L195.184 629.556L306.596 372.971L164.5 613.922L302.122 370.388L135.619 595.167L297.943 367.352L108.856 573.495L294.104 363.896L84.5054 549.144L290.648 360.057L62.8334 522.381L287.612 355.878L44.0776 493.5L285.029 351.404L28.4435 462.816L282.928 346.685L16.1024 430.667L281.332 341.773L7.18945 397.403L280.258 336.72L1.80231 363.39L279.718 331.583L0 329L279.718 326.417L1.80231 294.61L280.258 321.28L7.18945 260.597L281.332 316.227L16.1024 227.333L282.928 311.315L28.4435 195.184L285.029 306.596L44.0776 164.5L287.612 302.122L62.8334 135.619L290.648 297.943L84.5054 108.856L294.104 294.104L108.856 84.5054L297.943 290.648L135.619 62.8334L302.122 287.612L164.5 44.0776L306.596 285.029L195.184 28.4435L311.315 282.928L227.333 16.1024L316.227 281.332L260.597 7.18945L321.28 280.258L294.61 1.80231L326.417 279.718L329 0Z" fill="white" fill-opacity="0.4"/>
</svg>
