<svg width="93" height="93" fill="none" xmlns="http://www.w3.org/2000/svg"><path d="M13.125 2H2v11.125h11.125V2zm0 11.125H2V24.25h11.125V13.125zM35.375 2H24.25v11.125h11.125V2zM46.5 2H35.375v11.125H46.5V2zM35.375 13.125H24.25V24.25h11.125V13.125zM13.125 24.25H2v11.125h11.125V24.25zm0 11.125H2V46.5h11.125V35.375zm22.25-11.125H24.25v11.125h11.125V24.25zm0 11.125H24.25V46.5h11.125V35.375zM57.625 2H46.5v11.125h11.125V2zM68.75 2H57.625v11.125H68.75V2zm11.125 0H68.75v11.125h11.125V2zM91 2H79.875v11.125H91V2zm0 11.125H79.875V24.25H91V13.125zM57.625 24.25H46.5v11.125h11.125V24.25zm11.125 0H57.625v11.125H68.75V24.25zm0 11.125H57.625V46.5H68.75V35.375zM91 24.25H79.875v11.125H91V24.25zm0 11.125H79.875V46.5H91V35.375zM13.125 46.5H2v11.125h11.125V46.5zm0 11.125H2V68.75h11.125V57.625zM35.375 46.5H24.25v11.125h11.125V46.5zm0 11.125H24.25V68.75h11.125V57.625zm11.125 0H35.375V68.75H46.5V57.625zM13.125 68.75H2v11.125h11.125V68.75zm0 11.125H2V91h11.125V79.875zm11.125 0H13.125V91H24.25V79.875zm11.125 0H24.25V91h11.125V79.875zm11.125 0H35.375V91H46.5V79.875zM68.75 46.5H57.625v11.125H68.75V46.5zM57.625 57.625H46.5V68.75h11.125V57.625zm11.125 0H57.625V68.75H68.75V57.625zM91 46.5H79.875v11.125H91V46.5zm0 11.125H79.875V68.75H91V57.625zm-33.375 22.25H46.5V91h11.125V79.875zm11.125 0H57.625V91H68.75V79.875zM91 68.75H79.875v11.125H91V68.75zM79.875 79.875H68.75V91h11.125V79.875zm11.125 0H79.875V91H91V79.875z" stroke="#FCC344" stroke-width="4" stroke-miterlimit="10"/></svg>