<svg width="93" height="93" fill="none" xmlns="http://www.w3.org/2000/svg"><path d="M82.987 58.83H18.66c3.61-6.033 8.406-12.213 14.19-17.95 19.828-19.827 44.007-27.886 53.896-17.948 7.021 7.022 5.044 21.163-3.758 35.897z" stroke="#FCC344" stroke-width="4" stroke-miterlimit="10"/><path d="M10.006 34.156h64.328c-3.61 6.032-8.406 12.213-14.19 17.949C40.315 71.932 16.136 79.992 6.247 70.053c-7.021-6.971-5.044-21.163 3.758-35.897z" stroke="#FCC344" stroke-width="4" stroke-miterlimit="10"/><path d="M58.858 10.027v64.328c-6.032-3.61-12.213-8.406-17.949-14.19C21.082 40.336 13.022 16.157 22.961 6.268c6.971-7.07 21.162-5.044 35.897 3.758z" stroke="#FCC344" stroke-width="4" stroke-miterlimit="10"/><path d="M34.135 82.958V18.63c6.032 3.61 12.213 8.406 17.948 14.191C71.911 52.65 79.971 76.827 70.032 86.716c-6.972 7.071-21.163 5.093-35.897-3.758z" stroke="#FCC344" stroke-width="4" stroke-miterlimit="10"/></svg>