<svg width="461" height="584" fill="none" xmlns="http://www.w3.org/2000/svg"><path d="M2.555 138.001a2 2 0 10-.11 3.998l.11-3.998zM440.5 26.064l.518-1.931-.518 1.931zM455 203.563l1.828-.812-1.828.812zm-42 217.999l-1.941-.482 1.941.482zM234.586 583.414a2 2 0 002.828 0l12.728-12.728a2 2 0 10-2.828-2.828L236 579.172l-11.314-11.314a2 2 0 10-2.828 2.828l12.728 12.728zM2.446 141.999c77.691 2.131 122.574-9.755 151.525-27.591 28.943-17.832 41.729-41.516 55.319-61.956 6.817-10.253 13.82-19.686 23.149-27.427 9.3-7.716 20.988-13.812 37.24-17.241 32.62-6.883 83.605-3.024 170.303 20.212l1.036-3.863C354.216.868 302.451-3.22 268.853 3.87c-16.858 3.557-29.147 9.927-38.968 18.077-9.792 8.124-17.055 17.957-23.925 28.29-13.785 20.731-26.062 43.5-54.087 60.765-28.018 17.262-72.01 29.119-149.318 26.999l-.11 3.998zM439.981 27.996c.399.107.536.229.568.261.013.014.054.05.075.214.058.46-.11 1.432-.945 3.096-1.625 3.234-5.099 7.802-10.03 13.518-9.833 11.399-24.786 26.614-40.49 43.697-15.639 17.012-31.923 35.775-44.156 54.02-12.175 18.159-20.598 36.178-19.98 51.629l3.997-.16c-.564-14.085 7.193-31.176 19.306-49.242 12.055-17.98 28.167-36.558 43.778-53.54 15.547-16.912 30.7-32.346 40.574-43.791 4.922-5.706 8.703-10.609 10.575-14.336.913-1.817 1.555-3.698 1.339-5.395-.116-.915-.483-1.782-1.167-2.49-.665-.688-1.514-1.105-2.408-1.344l-1.036 3.863zM325.024 194.431c.629 15.722 11.336 28.172 25.937 36.953 14.63 8.798 33.514 14.148 51.376 15.609 17.796 1.457 34.98-.917 46.007-8.002 5.566-3.575 9.64-8.406 11.303-14.59 1.658-6.167.843-13.398-2.819-21.65l-3.656 1.623c3.406 7.676 3.967 13.949 2.612 18.988-1.351 5.023-4.679 9.101-9.602 12.264-9.948 6.391-26.083 8.808-43.519 7.381-17.372-1.422-35.635-6.629-49.64-15.051-14.034-8.439-23.449-19.872-24.002-33.685l-3.997.16zm131.804 8.32c-6.905-15.561-15.918-23.934-25.979-25.382-10.037-1.445-20.191 4.138-29.073 14.293-17.797 20.347-31.847 60.459-31.847 109.016h4c0-47.962 13.908-87.004 30.858-106.383 8.492-9.708 17.408-14.131 25.492-12.967 8.061 1.16 16.221 8.011 22.893 23.046l3.656-1.623zm-86.899 97.927c0 19.73 3.347 34.329 8.236 45.875 4.884 11.536 11.269 19.927 17.171 27.23 5.958 7.371 11.235 13.435 14.397 20.6 3.099 7.022 4.182 15.19 1.326 26.697l3.882.964c3.046-12.272 1.947-21.357-1.548-29.276-3.432-7.776-9.16-14.341-14.946-21.499-5.841-7.227-11.938-15.267-16.599-26.276-4.657-10.999-7.919-25.059-7.919-44.315h-4zm41.13 120.402c-4.147 16.706-16.672 26.094-33.842 32.975-8.588 3.441-18.235 6.213-28.431 8.956-10.161 2.734-20.878 5.443-31.444 8.735-21.133 6.587-42.024 15.614-57.61 32.354C244.09 520.899 234 545.233 234 582h4c0-35.983 9.847-59.266 24.659-75.174 14.867-15.967 34.944-24.738 55.874-31.261 10.466-3.262 21.052-5.936 31.292-8.691 10.205-2.746 20.053-5.569 28.88-9.106 17.658-7.077 31.633-17.181 36.236-35.724l-3.882-.964z" fill="#000"/></svg>