<svg width="141" height="37" fill="none" xmlns="http://www.w3.org/2000/svg"><path fill-rule="evenodd" clip-rule="evenodd" d="M0 17.127h5.07V5.475l6.633 11.652h2.83l6.633-11.652v11.652h5.206V.294h-7.221L13.31 10.77 7.493.293H0v16.833zM40.134 0C29.472 0 28.272 5.317 28.272 8.326v.679c0 2.964 1.2 8.416 11.862 8.416h.973c10.617 0 11.84-5.452 11.84-8.416v-.679C52.947 5.317 51.702 0 41.106 0h-.973zm7.289 8.8c0 1.947-1.155 4.526-6.814 4.526-5.704 0-6.814-2.647-6.814-4.57v-.272c0-1.923 1.02-4.412 6.814-4.412 5.705 0 6.814 2.489 6.814 4.412v.317zM54.846.295v16.833h5.207V5.973l11.432 11.154h5.206V.294h-5.206v10.589L60.732.294h-5.886zm51.814 16.833h5.275v-6.516l8.76-10.317h-5.953l-5.32 6.2-5.229-6.2h-6.542l9.009 10.317v6.516zm-51.823 2.38v16.833h5.251v-6.674H71.95V25.82H60.088v-2.488h12.157v-3.824H54.837zm55.315 17.127c8.466 0 9.87-2.85 9.87-5.633v-.317c0-3.349-2.558-4.887-8.897-5l-2.829-.046c-3.441-.067-3.894-.724-3.894-1.448s.294-1.448 4.369-1.448h.362c4.414 0 4.754 1.38 4.867 2.014h5.478v-.226c0-2.534-1.811-5.317-9.779-5.317h-1.562c-7.674 0-9.168 2.624-9.168 5.136v.203c0 2.625 1.924 4.752 8.217 4.933l2.898.067c3.893.114 4.414.724 4.414 1.698 0 .905-.498 1.787-4.934 1.787h-.318c-4.346 0-4.934-1.652-5.002-2.67h-5.501v.25c0 2.216 1.019 6.017 9.847 6.017h1.562zm17.746-.294h5.32V23.49h7.266v-3.982h-19.829v3.982h7.243v12.85z" fill="#fff"/><path d="M76.747 19.51h-5.034v3.818h5.034v-3.819zm0 6.303H71.41v3.88h5.337v-3.88z" fill="#fff"/><path d="M97.002.295H79.233v3.819h17.77V.294zm0 6.425H79.233v3.818h17.77V6.72zm0 6.425H79.233v3.818h17.77v-3.819zm0 6.485H79.233v3.819h17.77V19.63zm0 6.425H79.233v3.819h17.77v-3.819zm0 6.425H79.233v3.819h17.77V32.48z" fill="#FCC344"/></svg>